<?xml version="1.0" encoding="utf-8"?>
<!-- Generator: Adobe Illustrator 27.9.0, SVG Export Plug-In . SVG Version: 6.00 Build 0)  -->
<svg version="1.1" id="Layer_1" xmlns="http://www.w3.org/2000/svg" xmlns:xlink="http://www.w3.org/1999/xlink" x="0px" y="0px"
	 viewBox="0 0 400 400" style="enable-background:new 0 0 400 400;" xml:space="preserve">
<style type="text/css">
	.st0{fill:#3070B7;stroke:#78A2D2;stroke-width:4;stroke-miterlimit:40;}
	.st1{fill:#3A83C1;}
	.st2{fill:#40A6DD;}
	.st3{fill:#31C4F3;}
	.st4{fill:#1F212B;}
	.st5{fill:#F9E65C;}
	.st6{fill:none;stroke:#1F212B;stroke-width:4;stroke-linecap:round;stroke-linejoin:round;stroke-miterlimit:40;}
	.st7{fill:#FFFFFF;}
</style>
<path class="st0" d="M303.4,38.2H100.6c-34.3,0-62.4,28.1-62.4,62.4v202.8c0,34.3,28.1,62.4,62.4,62.4h202.8
	c34.3,0,62.4-28.1,62.4-62.4V100.6C365.8,66.2,337.7,38.2,303.4,38.2z"/>
<path class="st1" d="M303.4,365.8H100.6c-34.3,0-62.4-28.1-62.4-62.4v-65c21.5-20.9,50.9-33.8,83.3-33.8h161.2
	c32.3,0,61.6,12.8,83.1,33.7v65.1C365.8,337.7,337.7,365.8,303.4,365.8z"/>
<path class="st2" d="M303.4,365.8H100.6c-34.3,0-62.4-28.1-62.4-62.4v-23.4c21.5-20.9,50.9-33.8,83.3-33.8h161.2
	c32.3,0,61.6,12.8,83.1,33.7v23.5C365.8,337.7,337.7,365.8,303.4,365.8z"/>
<path class="st3" d="M303.4,365.8H100.6c-28.7,0-53-19.7-60.2-46.3c21.3-19.7,49.8-31.7,81.1-31.7h161.2c31.2,0,59.7,12,81,31.6
	C356.5,346,332.2,365.8,303.4,365.8z"/>
<path class="st4" d="M303.4,371H100.6C63.3,371,33,340.7,33,303.4V100.6C33,63.2,63.3,33,100.6,33h202.8c37.3,0,67.6,30.3,67.6,67.6
	v202.8C371,340.7,340.7,371,303.4,371z M43.4,100.6v202.8c0,31.6,25.6,57.2,57.2,57.2h202.8c31.6,0,57.2-25.6,57.2-57.2V100.6
	c0-31.6-25.6-57.2-57.2-57.2H100.6C69,43.4,43.4,69,43.4,100.6z"/>
<path class="st4" d="M288.6,345H115.4C84.2,345,59,319.7,59,288.6V115.3C59,84.2,84.2,59,115.4,59h175c1.4,0,2.6,1.2,2.6,2.6
	s-1.2,2.6-2.6,2.6h-175c-28.3,0-51.2,22.9-51.2,51.2v173.3c0,28.3,22.9,51.2,51.2,51.2h173.3c28.3,0,51.2-22.9,51.2-51.2v-97
	c0-1.4,1.2-2.6,2.6-2.6s2.6,1.2,2.6,2.6v97C345,319.7,319.8,345,288.6,345z M342.4,176.4c-1.4,0-2.6-1.2-2.6-2.6V153
	c0-1.4,1.2-2.6,2.6-2.6s2.6,1.2,2.6,2.6v20.8C345,175.2,343.8,176.4,342.4,176.4z M342.4,145.2c-1.4,0-2.6-1.2-2.6-2.6v-10.4
	c0-1.4,1.2-2.6,2.6-2.6s2.6,1.2,2.6,2.6v10.4C345,144,343.8,145.2,342.4,145.2z"/>
<circle class="st5" cx="137" cy="173.4" r="44.2"/>
<circle class="st6" cx="137" cy="173.4" r="44.2"/>
<path class="st7" d="M261.8,176c-8.1,0-15.7,2-22.4,5.4c-8-18.5-26.3-31.4-47.8-31.4c-28.7,0-52,23.3-52,52c0,0.1,0,0.3,0,0.4
	c-17.6,2.5-31.2,17.6-31.2,36c0,20.1,16.3,36.4,36.4,36.4c15.2,0,97.5,0,117,0c27.3,0,49.4-22.1,49.4-49.4S289.1,176,261.8,176z"/>
<path class="st6" d="M261.8,176c-8.1,0-15.7,2-22.4,5.4c-8-18.5-26.3-31.4-47.8-31.4c-28.7,0-52,23.3-52,52c0,0.1,0,0.3,0,0.4
	c-17.6,2.5-31.2,17.6-31.2,36c0,20.1,16.3,36.4,36.4,36.4c15.2,0,97.5,0,117,0c27.3,0,49.4-22.1,49.4-49.4S289.1,176,261.8,176z"/>
</svg>
